<?xml version="1.0" encoding="UTF-8" standalone="no"?>
<svg width="371px" height="80px" viewBox="0 0 371 80" version="1.1" xmlns="http://www.w3.org/2000/svg" xmlns:xlink="http://www.w3.org/1999/xlink">
    <!-- Generator: sketchtool 39.1 (31720) - http://www.bohemiancoding.com/sketch -->
    <title>630F06C3-A609-4DAF-BA50-CCA955088EA6</title>
    <desc>Created with sketchtool.</desc>
    <defs>
        <path d="M7.1105522,2.84241247 C7.20842475,2.29435918 7.60135981,2.1636679 7.98949134,2.55179943 L16.3434002,10.9057083 C16.7309524,11.2932604 16.6082692,11.6854483 16.0527872,11.7846474 L6.15878404,13.5515399 C5.61073075,13.6494125 5.24446051,13.2918976 5.34365969,12.7364156 L7.1105522,2.84241247 Z" id="path-1"></path>
        <mask id="mask-2" maskContentUnits="userSpaceOnUse" maskUnits="objectBoundingBox" x="0" y="0" width="11.2411693" height="11.2392472" fill="white">
            <use xlink:href="#path-1"></use>
        </mask>
        <path d="M4.1105522,2.84241247 C4.20842475,2.29435918 4.60135981,2.1636679 4.98949134,2.55179943 L13.3434002,10.9057083 C13.7309524,11.2932604 13.6082692,11.6854483 13.0527872,11.7846474 L3.15878404,13.5515399 C2.61073075,13.6494125 2.24446051,13.2918976 2.34365969,12.7364156 L4.1105522,2.84241247 Z" id="path-3"></path>
        <mask id="mask-4" maskContentUnits="userSpaceOnUse" maskUnits="objectBoundingBox" x="0" y="0" width="11.2411693" height="11.2392472" fill="white">
            <use xlink:href="#path-3"></use>
        </mask>
    </defs>
    <g id="Page-1" stroke="none" stroke-width="1" fill="none" fill-rule="evenodd">
        <g id="2-Cards-Game" transform="translate(-509.000000, -184.000000)">
            <g id="Group-11" transform="translate(509.000000, 183.000000)">
                <g id="Group-9">
                    <ellipse id="Oval-Copy-2" stroke="#E72E77" stroke-width="2" opacity="0.7" transform="translate(48.000000, 17.000000) scale(-1, 1) translate(-48.000000, -17.000000) " cx="48" cy="17" rx="4" ry="4"></ellipse>
                    <g id="Group-6" opacity="0.5" transform="translate(6.500000, 54.500000) scale(-1, 1) translate(-6.500000, -54.500000) translate(0.000000, 48.000000)" fill="#E72E77">
                        <rect id="Rectangle" transform="translate(6.500000, 6.442400) rotate(45.000000) translate(-6.500000, -6.442400) " x="5" y="-1.05760022" width="3" height="15"></rect>
                        <rect id="Rectangle" transform="translate(6.500000, 6.442400) rotate(-45.000000) translate(-6.500000, -6.442400) " x="5" y="-1.05760022" width="3" height="15"></rect>
                    </g>
                    <use id="Rectangle-8" stroke="#E72E77" mask="url(#mask-2)" stroke-width="4" opacity="0.7" transform="translate(10.948027, 7.948027) rotate(27.000000) translate(-10.948027, -7.948027) " xlink:href="#path-1"></use>
                </g>
                <g id="Group-10" transform="translate(315.000000, 0.000000)">
                    <path d="M48,54 C50.209139,54 52,52.209139 52,50 C52,47.790861 50.209139,46 48,46 C45.790861,46 44,47.790861 44,50 C44,52.209139 45.790861,54 48,54 Z" id="Oval-Copy" stroke="#E72E77" stroke-width="2" opacity="0.7" transform="translate(48.000000, 50.000000) scale(-1, 1) translate(-48.000000, -50.000000) "></path>
                    <use id="Rectangle-8-Copy-2" stroke="#E72E77" mask="url(#mask-4)" stroke-width="4" opacity="0.7" transform="translate(7.948027, 7.948027) rotate(45.000000) translate(-7.948027, -7.948027) " xlink:href="#path-3"></use>
                    <circle id="Oval-3" fill="#E72E77" transform="translate(54.000000, 22.000000) scale(-1, 1) translate(-54.000000, -22.000000) " cx="54" cy="22" r="2"></circle>
                </g>
                <text id="YOU-WIN!" font-family="GothamRounded-Bold, Gotham Rounded" font-size="60" font-weight="bold" fill="#E72E77">
                    <tspan x="33.24" y="80">YOU WIN!</tspan>
                </text>
            </g>
        </g>
    </g>
</svg>